<svg width="20" height="20" viewBox="0 0 20 20" fill="none" xmlns="http://www.w3.org/2000/svg">
<path d="M8 0H1.33333C0.6 0 0 0.6 0 1.33333V8C0 8.73333 0.6 9.33333 1.33333 9.33333H8C8.73333 9.33333 9.33333 8.73333 9.33333 8V1.33333C9.33333 0.6 8.73333 0 8 0ZM8 5.33333H1.33333V4H8V5.33333ZM18.6667 0H12C11.2667 0 10.6667 0.6 10.6667 1.33333V18.6667C10.6667 19.4 11.2667 20 12 20H18.6667C19.4 20 20 19.4 20 18.6667V1.33333C20 0.6 19.4 0 18.6667 0ZM18.6667 12H12V10.6667H18.6667V12ZM18.6667 8H12V6.66667H18.6667V8ZM8 10.6667H1.33333C0.6 10.6667 0 11.2667 0 12V18.6667C0 19.4 0.6 20 1.33333 20H8C8.73333 20 9.33333 19.4 9.33333 18.6667V12C9.33333 11.2667 8.73333 10.6667 8 10.6667ZM8 16H5.33333V18.6667H4V16H1.33333V14.6667H4V12H5.33333V14.6667H8V16Z" fill="white"/>
</svg>
