<svg width="20" height="32" viewBox="0 0 20 32" fill="none" xmlns="http://www.w3.org/2000/svg">
<path d="M2.06822 32C1.5197 32 0.993635 31.7977 0.605768 31.4376C0.217901 31.0776 0 30.5892 0 30.08L0 7.54133C0 6.48133 0.926391 5.62133 2.06822 5.62133H4.51849C4.59605 5.62133 4.67074 5.63867 4.73537 5.66933L4.7325 5.668V0.224C4.7325 0.1 4.84022 0 4.97379 0H13.6201C13.7537 0 13.8614 0.1 13.8614 0.224V5.636C13.899 5.6273 13.9376 5.62283 13.9763 5.62267H16.1522C17.2941 5.62267 18.2205 6.48267 18.2205 7.54267V12.9173C18.2853 12.888 18.3566 12.8729 18.4287 12.8733H19.516C19.7831 12.8733 20 13.0747 20 13.3227V25.0187C20 25.1378 19.949 25.2521 19.8582 25.3364C19.7675 25.4207 19.6444 25.468 19.516 25.468H18.4287C18.3555 25.4682 18.2833 25.4527 18.2176 25.4227L18.2205 25.424V30.08C18.2205 30.5892 18.0026 31.0776 17.6147 31.4376C17.2268 31.7977 16.7008 32 16.1522 32H2.06822ZM12.5874 27.692V29.204C12.5878 29.2637 12.6135 29.3208 12.6589 29.3629C12.7044 29.4051 12.7659 29.429 12.8302 29.4293H14.7461C14.8104 29.429 14.8719 29.4051 14.9174 29.3629C14.9628 29.3208 14.9885 29.2637 14.9889 29.204V27.692C14.9885 27.6325 14.9627 27.5755 14.9173 27.5335C14.8718 27.4916 14.8103 27.468 14.7461 27.468H12.8273C12.7633 27.4683 12.702 27.492 12.6566 27.5339C12.6112 27.5758 12.5853 27.6326 12.5846 27.692H12.5874ZM8.05458 27.692V29.204C8.05495 29.2637 8.08065 29.3208 8.12609 29.3629C8.17153 29.4051 8.23305 29.429 8.29731 29.4293H10.2118C10.2761 29.429 10.3376 29.4051 10.3831 29.3629C10.4285 29.3208 10.4542 29.2637 10.4546 29.204V27.692C10.4542 27.6325 10.4285 27.5755 10.383 27.5335C10.3375 27.4916 10.276 27.468 10.2118 27.468H8.29587C8.23186 27.4683 8.17055 27.492 8.12515 27.5339C8.07975 27.5758 8.05389 27.6326 8.05314 27.692H8.05458ZM3.52172 27.692V29.2053C3.52172 29.3293 3.62944 29.4293 3.76302 29.4293H5.67899C5.74325 29.429 5.80477 29.4051 5.85021 29.3629C5.89565 29.3208 5.92135 29.2637 5.92172 29.204V27.692C5.92134 27.6325 5.8956 27.5755 5.85012 27.5335C5.80464 27.4916 5.74312 27.468 5.67899 27.468H3.76302C3.69902 27.468 3.63765 27.4916 3.5924 27.5336C3.54715 27.5756 3.52172 27.6326 3.52172 27.692ZM12.586 24.264V25.776C12.5864 25.8357 12.6121 25.8928 12.6575 25.9349C12.7029 25.9771 12.7645 26.001 12.8287 26.0013H14.7447C14.809 26.001 14.8705 25.9771 14.9159 25.9349C14.9614 25.8928 14.9871 25.8357 14.9874 25.776V24.2627C14.9874 24.2033 14.962 24.1463 14.9168 24.1043C14.8715 24.0623 14.8101 24.0387 14.7461 24.0387H12.8259C12.7619 24.0387 12.7005 24.0623 12.6552 24.1043C12.61 24.1463 12.5846 24.2033 12.5846 24.2627V24.264H12.586ZM8.05314 24.264V25.776C8.05352 25.8357 8.07921 25.8928 8.12465 25.9349C8.17009 25.9771 8.23161 26.001 8.29587 26.0013H10.2118C10.2761 26.001 10.3376 25.9771 10.3831 25.9349C10.4285 25.8928 10.4542 25.8357 10.4546 25.776V24.2627C10.4546 24.2033 10.4292 24.1463 10.3839 24.1043C10.3387 24.0623 10.2773 24.0387 10.2133 24.0387H8.29443C8.23044 24.0387 8.16907 24.0623 8.12381 24.1043C8.07856 24.1463 8.05314 24.2033 8.05314 24.2627V24.264ZM3.52029 24.264V25.7773C3.52029 25.9013 3.62801 26.0013 3.76158 26.0013H5.67756C5.74182 26.001 5.80334 25.9771 5.84878 25.9349C5.89422 25.8928 5.91991 25.8357 5.92029 25.776V24.2627C5.92029 24.2033 5.89487 24.1463 5.84961 24.1043C5.80436 24.0623 5.74299 24.0387 5.67899 24.0387H3.76158C3.69759 24.0387 3.63621 24.0623 3.59096 24.1043C3.54571 24.1463 3.52029 24.2033 3.52029 24.2627V24.264ZM12.5846 20.8347V22.348C12.5846 22.472 12.6923 22.572 12.8259 22.572H14.7447C14.8087 22.572 14.8701 22.5484 14.9153 22.5064C14.9606 22.4644 14.986 22.4074 14.986 22.348V20.8347C14.9856 20.7751 14.9599 20.7182 14.9144 20.6762C14.8689 20.6342 14.8074 20.6107 14.7433 20.6107H12.8273C12.7633 20.611 12.702 20.6347 12.6566 20.6766C12.6112 20.7185 12.5853 20.7752 12.5846 20.8347ZM8.05171 20.8347V22.348C8.05171 22.472 8.15943 22.572 8.293 22.572H10.2118C10.2758 22.572 10.3372 22.5484 10.3825 22.5064C10.4277 22.4644 10.4531 22.4074 10.4531 22.348V20.8347C10.4528 20.7751 10.427 20.7182 10.3815 20.6762C10.3361 20.6342 10.2745 20.6107 10.2104 20.6107H8.29443C8.23042 20.611 8.16912 20.6347 8.12372 20.6766C8.07832 20.7185 8.05246 20.7752 8.05171 20.8347ZM3.51885 20.8347V22.348C3.51885 22.472 3.62657 22.572 3.76014 22.572H5.67899C5.74299 22.572 5.80436 22.5484 5.84961 22.5064C5.89487 22.4644 5.92029 22.4074 5.92029 22.348V20.8347C5.91991 20.7751 5.89417 20.7182 5.84869 20.6762C5.80321 20.6342 5.74169 20.6107 5.67756 20.6107H3.76158C3.69759 20.6107 3.63621 20.6343 3.59096 20.6763C3.54571 20.7183 3.52029 20.7753 3.52029 20.8347H3.51885ZM3.21724 11.884V18.4333C3.21724 18.5573 3.32495 18.6573 3.45853 18.6573H14.6068C14.6708 18.6573 14.7322 18.6337 14.7774 18.5917C14.8227 18.5497 14.8481 18.4927 14.8481 18.4333V11.884C14.8477 11.8243 14.822 11.7672 14.7766 11.7251C14.7312 11.6829 14.6696 11.659 14.6054 11.6587H3.45996C3.3957 11.659 3.33418 11.6829 3.28875 11.7251C3.24331 11.7672 3.21761 11.8243 3.21724 11.884ZM2.49336 8.308V9.89467C2.49336 10.2667 2.81795 10.568 3.21867 10.568H15.2819C15.4742 10.568 15.6587 10.4971 15.7947 10.3708C15.9308 10.2445 16.0072 10.0732 16.0072 9.89467V8.308C16.0072 8.12942 15.9308 7.95816 15.7947 7.83188C15.6587 7.70561 15.4742 7.63467 15.2819 7.63467H13.86V8.98133H14.5609V9.21867H3.94399V8.98133H4.40503C4.52153 8.98132 4.63632 8.95525 4.73968 8.90533L4.73537 8.90667V7.70933C4.63287 7.66 4.51905 7.63438 4.40359 7.63467H3.2158C3.02368 7.63502 2.83957 7.70612 2.70385 7.83235C2.56814 7.95859 2.49192 8.12965 2.49192 8.308H2.49336Z" fill="white"/>
</svg>
