<svg width="20" height="26" viewBox="0 0 20 26" fill="none" xmlns="http://www.w3.org/2000/svg">
<path fill-rule="evenodd" clip-rule="evenodd" d="M3.33333 0C2.44928 0 1.60143 0.34241 0.976311 0.951903C0.351189 1.5614 0 2.38805 0 3.25V22.75C0 23.612 0.351189 24.4386 0.976311 25.0481C1.60143 25.6576 2.44928 26 3.33333 26H16.6667C17.5507 26 18.3986 25.6576 19.0237 25.0481C19.6488 24.4386 20 23.612 20 22.75V8.79775C19.9998 7.93587 19.6485 7.10935 19.0233 6.5L13.3333 0.95225C12.7084 0.342714 11.8607 0.000184072 10.9767 0H3.33333ZM6.66667 16.25C6.66667 15.819 6.49107 15.4057 6.17851 15.101C5.86595 14.7962 5.44203 14.625 5 14.625C4.55797 14.625 4.13405 14.7962 3.82149 15.101C3.50893 15.4057 3.33333 15.819 3.33333 16.25V21.125C3.33333 21.556 3.50893 21.9693 3.82149 22.274C4.13405 22.5788 4.55797 22.75 5 22.75C5.44203 22.75 5.86595 22.5788 6.17851 22.274C6.49107 21.9693 6.66667 21.556 6.66667 21.125V16.25ZM10 11.375C10.442 11.375 10.8659 11.5462 11.1785 11.851C11.4911 12.1557 11.6667 12.569 11.6667 13V21.125C11.6667 21.556 11.4911 21.9693 11.1785 22.274C10.8659 22.5788 10.442 22.75 10 22.75C9.55797 22.75 9.13405 22.5788 8.82149 22.274C8.50893 21.9693 8.33333 21.556 8.33333 21.125V13C8.33333 12.569 8.50893 12.1557 8.82149 11.851C9.13405 11.5462 9.55797 11.375 10 11.375ZM16.6667 9.75C16.6667 9.31902 16.4911 8.9057 16.1785 8.60095C15.8659 8.29621 15.442 8.125 15 8.125C14.558 8.125 14.134 8.29621 13.8215 8.60095C13.5089 8.9057 13.3333 9.31902 13.3333 9.75V21.125C13.3333 21.556 13.5089 21.9693 13.8215 22.274C14.134 22.5788 14.558 22.75 15 22.75C15.442 22.75 15.8659 22.5788 16.1785 22.274C16.4911 21.9693 16.6667 21.556 16.6667 21.125V9.75Z" fill="white"/>
</svg>
