<svg width="60" height="60" viewBox="0 0 60 60" fill="none" xmlns="http://www.w3.org/2000/svg">
<line x1="1.68316" y1="59.2817" x2="19.6832" y2="26.2817" stroke="#34AA69" stroke-width="3"/>
<line x1="18.7285" y1="24.6888" x2="36.7285" y2="34.6888" stroke="#34AA69" stroke-width="3"/>
<path d="M56.4568 1.64267C56.2595 0.83809 55.4472 0.345834 54.6427 0.543183L41.5313 3.75917C40.7267 3.95652 40.2345 4.76875 40.4318 5.57332C40.6292 6.3779 41.4414 6.87016 42.246 6.67281L53.9005 3.81415L56.7592 15.4687C56.9565 16.2733 57.7687 16.7655 58.5733 16.5682C59.3779 16.3708 59.8702 15.5586 59.6728 14.754L56.4568 1.64267ZM36.2828 35.7775L56.2828 2.77745L53.7172 1.22255L33.7172 34.2225L36.2828 35.7775Z" fill="#34AA69"/>
</svg>
