<svg width="42" height="39" viewBox="0 0 42 39" fill="none" xmlns="http://www.w3.org/2000/svg">
<g opacity="0.7">
<path d="M0.5 0.5H30C36.3513 0.5 41.5 5.64873 41.5 12V27C41.5 33.3513 36.3513 38.5 30 38.5H0.5V0.5Z" fill="white"/>
<g clip-path="url(#clip0_2_2393)">
<path d="M15.6599 9H9C8.44772 9 8 9.44772 8 10V16.6599C8 17.2121 8.44772 17.6599 9 17.6599H15.6599C16.2121 17.6599 16.6599 17.2121 16.6599 16.6599V10C16.6599 9.44772 16.2121 9 15.6599 9Z" fill="#9CA3AF"/>
<path d="M25.9997 9H19.3398C18.7876 9 18.3398 9.44772 18.3398 10V16.6599C18.3398 17.2121 18.7876 17.6599 19.3398 17.6599H25.9997C26.552 17.6599 26.9997 17.2121 26.9997 16.6599V10C26.9997 9.44772 26.552 9 25.9997 9Z" fill="#9CA3AF"/>
<path d="M15.6599 19.3617H9C8.44772 19.3617 8 19.8094 8 20.3617V27.0215C8 27.5738 8.44772 28.0215 9 28.0215H15.6599C16.2121 28.0215 16.6599 27.5738 16.6599 27.0215V20.3617C16.6599 19.8094 16.2121 19.3617 15.6599 19.3617Z" fill="#9CA3AF"/>
<path d="M25.9997 19.3617H19.3398C18.7876 19.3617 18.3398 19.8094 18.3398 20.3617V27.0215C18.3398 27.5738 18.7876 28.0215 19.3398 28.0215H25.9997C26.552 28.0215 26.9997 27.5738 26.9997 27.0215V20.3617C26.9997 19.8094 26.552 19.3617 25.9997 19.3617Z" fill="#9CA3AF"/>
</g>
<path d="M0.5 0.5H30C36.3513 0.5 41.5 5.64873 41.5 12V27C41.5 33.3513 36.3513 38.5 30 38.5H0.5V0.5Z" stroke="#9CA3AF"/>
</g>
<defs>
<clipPath id="clip0_2_2393">
<rect width="19" height="19" fill="white" transform="translate(8 9)"/>
</clipPath>
</defs>
</svg>
