<svg width="46" height="39" viewBox="0 0 46 39" fill="none" xmlns="http://www.w3.org/2000/svg">
<g opacity="0.7">
<path d="M0.5 12C0.5 5.64873 5.64873 0.5 12 0.5H45.5V38.5H12C5.64873 38.5 0.5 33.3513 0.5 27V12Z" fill="#F1FFFF"/>
<path d="M19.4121 9.26743C18.866 9.26743 18.4258 9.74736 18.4258 10.342V12.5052C18.4258 13.0996 18.866 13.5801 19.4121 13.5801H33.5072C34.0534 13.5801 34.4936 13.0996 34.4936 12.5052V10.342C34.4936 9.74736 34.0531 9.26743 33.5072 9.26743H19.4121Z" fill="#9CA3AF"/>
<path d="M19.4121 16.0412C18.866 16.0412 18.4258 16.52 18.4258 17.116V19.2781C18.4258 19.8742 18.866 20.3524 19.4121 20.3524H33.5072C34.0534 20.3524 34.4936 19.8742 34.4936 19.2781V17.116C34.4936 16.52 34.0531 16.0412 33.5072 16.0412H19.4121Z" fill="#9CA3AF"/>
<path d="M19.4121 22.8138C18.866 22.8138 18.4258 23.2937 18.4258 23.8883V26.0504C18.4258 26.6462 18.866 27.125 19.4121 27.125H33.5072C34.0534 27.125 34.4936 26.6462 34.4936 26.0504V23.8883C34.4936 23.294 34.0531 22.8138 33.5072 22.8138H19.4121Z" fill="#9CA3AF"/>
<path d="M14.2311 22.8138C13.6601 22.8138 13.1114 23.0412 12.7059 23.4451C12.3023 23.8503 12.0752 24.3976 12.0752 24.97C12.0752 25.5426 12.3026 26.0902 12.7076 26.4935C13.1117 26.8987 13.6601 27.1259 14.2314 27.1247C15.4218 27.1247 16.3876 26.1604 16.3876 24.97C16.3876 24.3976 16.1601 23.8503 15.7566 23.4451C15.3507 23.0412 14.8035 22.8138 14.2311 22.8138Z" fill="#9CA3AF"/>
<path d="M14.2311 16.0412C13.6601 16.0412 13.1114 16.2675 12.7059 16.6724C12.3023 17.076 12.0752 17.625 12.0752 18.1976C12.0752 18.7683 12.3026 19.3176 12.7076 19.7208C13.1117 20.125 13.6601 20.3521 14.2314 20.3521C15.4218 20.3521 16.3876 19.388 16.3876 18.1973C16.3876 17.6247 16.1601 17.0771 15.7566 16.6722C15.3507 16.2689 14.8035 16.0412 14.2311 16.0412Z" fill="#9CA3AF"/>
<path d="M14.2314 9.26743C13.6604 9.26743 13.1117 9.49513 12.7076 9.89869C12.3026 10.3037 12.0752 10.851 12.0752 11.4233C12.0752 11.9946 12.3026 12.5435 12.7059 12.9485C13.1114 13.3521 13.6601 13.5798 14.2311 13.5798C14.8035 13.5798 15.3508 13.3521 15.7563 12.9468C16.1598 12.5433 16.3873 11.9943 16.3873 11.423C16.3876 10.2332 15.4218 9.26743 14.2314 9.26743Z" fill="#9CA3AF"/>
<path d="M0.5 12C0.5 5.64873 5.64873 0.5 12 0.5H45.5V38.5H12C5.64873 38.5 0.5 33.3513 0.5 27V12Z" stroke="#3637EA"/>
</g>
</svg>
